<svg width="18" height="18" viewBox="0 0 18 18" fill="none" xmlns="http://www.w3.org/2000/svg">
<path d="M5.40759 17.7225C5.03759 18.0925 4.43675 18.0925 4.06673 17.7225L0.277581 13.9333C0.00540504 13.661 -0.0746589 13.2557 0.0732371 12.9005C0.221221 12.5454 0.567601 12.3172 0.949388 12.3172H2.84396L2.84396 7.58091C2.84397 6.59337 3.14647 5.67704 3.66298 4.91834C3.70482 4.85687 3.74801 4.79642 3.79262 4.73707C3.90586 4.58644 4.02842 4.44341 4.15846 4.3075C4.21083 4.25274 4.26448 4.1993 4.31941 4.1471C4.39143 4.07868 4.46512 4.01206 4.54133 3.94824C5.36382 3.25922 6.42372 2.8441 7.58122 2.8441L12.3174 2.8441V0.949492C12.3174 0.5677 12.5451 0.22138 12.9002 0.0733226C13.2554 -0.0746872 13.6611 0.00533247 13.9334 0.27767L17.7226 4.06635C18.0925 4.43631 18.0924 5.03721 17.7226 5.40724L17.7253 5.41054L13.9362 9.19921C13.6639 9.46857 13.2587 9.55152 12.9035 9.40356C12.5483 9.25555 12.3174 8.90926 12.3174 8.52739V6.63278H9.49611C9.48901 6.63294 9.48184 6.63388 9.47469 6.63388L7.58012 6.63388C7.34566 6.63391 7.13176 6.719 6.96654 6.85965C6.76305 7.03326 6.63365 7.2913 6.63365 7.58036L6.63366 9.47497C6.63365 9.47864 6.63315 9.4823 6.63311 9.48596V12.3172H8.52768C8.90945 12.3172 9.25584 12.5481 9.40383 12.9033C9.55184 13.2585 9.46886 13.6642 9.19949 13.9366L5.41034 17.7258L5.40759 17.7225Z" fill="white"/>
</svg>
