<svg width="42" height="51" viewBox="0 0 42 51" fill="none" xmlns="http://www.w3.org/2000/svg">
<path d="M8 1.5H34C37.5899 1.5 40.5 4.41015 40.5 8V42.2178C40.4998 45.8074 37.5897 48.7178 34 48.7178H22C18.4103 48.7178 15.5002 45.8074 15.5 42.2178V35.1104C15.5 30.4159 11.6944 26.6104 7 26.6104C3.96254 26.6104 1.50018 24.1478 1.5 21.1104V8C1.5 4.41015 4.41015 1.5 8 1.5Z" fill="white" fill-opacity="0.1" stroke="white" stroke-width="3"/>
<path d="M13.01 14.5072C12.475 15.0258 12.475 15.8681 13.01 16.3868L18.4885 21.6979C18.8823 22.0796 19.4686 22.1916 19.9822 21.9842C20.4959 21.7767 20.8254 21.2912 20.8254 20.756V18.1004H27.6736C31.4572 18.1004 34.5217 15.1295 34.5217 11.4616V8.80604C34.5217 8.07162 33.9097 7.47827 33.1521 7.47827H30.4129C29.6553 7.47827 29.0432 8.07162 29.0432 8.80604V11.4616C29.0432 12.196 28.4312 12.7894 27.6736 12.7894H20.8254V10.1338C20.8254 9.59855 20.4916 9.11309 19.978 8.90562C19.4644 8.69816 18.878 8.81434 18.4842 9.19192L13.0057 14.503L13.01 14.5072Z" fill="white"/>
</svg>
