<svg width="95" height="26" viewBox="0 0 95 26" fill="none" xmlns="http://www.w3.org/2000/svg">
<rect width="95" height="26" rx="13" fill="#202D28"/>
<rect x="0.5" y="0.5" width="94" height="25" rx="12.5" stroke="white" stroke-opacity="0.25"/>
<path d="M32.7161 18.7991C31.6233 18.7991 31 18.1561 31 17.0147V8.98526C31 7.84394 31.6233 7.20094 32.7161 7.20094H37.8885C38.8113 7.20094 39.4022 7.69123 39.4022 8.55928C39.4022 9.42733 38.7951 9.91762 37.8885 9.91762H34.4321V11.7823H37.7509C38.5685 11.7823 39.1027 12.2244 39.1027 13.004C39.1027 13.7837 38.5847 14.2257 37.7509 14.2257H34.4321V16.0824H37.8885C38.7951 16.0824 39.4022 16.5727 39.4022 17.4407C39.4022 18.3088 38.8113 18.7991 37.8885 18.7991H32.7161Z" fill="white"/>
<path d="M42.462 19C41.434 19 40.8431 18.4052 40.8431 17.3121V8.57535C40.8431 7.54655 41.4097 7 42.462 7C43.0853 7 43.5629 7.28131 44.0567 7.93235L48.0149 13.213H48.0797V8.68788C48.0797 7.59478 48.6787 7 49.6986 7C50.7267 7 51.3176 7.59478 51.3176 8.68788V17.4246C51.3176 18.4454 50.759 19 49.7391 19C49.0834 19 48.622 18.7267 48.1364 18.0676L44.1457 12.6906H44.0809V17.3121C44.0809 18.4052 43.4819 19 42.462 19Z" fill="white"/>
<path d="M57.2833 19C56.1905 19 55.5672 18.357 55.5672 17.2157V9.91762H53.8431C52.9365 9.91762 52.3294 9.42733 52.3294 8.55928C52.3294 7.69123 52.9203 7.20094 53.8431 7.20094H60.7235C61.6463 7.20094 62.2372 7.69123 62.2372 8.55928C62.2372 9.42733 61.6301 9.91762 60.7235 9.91762H58.9994V17.2157C58.9994 18.357 58.3761 19 57.2833 19Z" fill="white"/>
<path d="M64.9651 18.7991C63.8724 18.7991 63.2491 18.1561 63.2491 17.0147V8.98526C63.2491 7.84394 63.8724 7.20094 64.9651 7.20094H70.1376C71.0604 7.20094 71.6513 7.69123 71.6513 8.55928C71.6513 9.42733 71.0442 9.91762 70.1376 9.91762H66.6812V11.7823H70C70.8176 11.7823 71.3518 12.2244 71.3518 13.004C71.3518 13.7837 70.8337 14.2257 70 14.2257H66.6812V16.0824H70.1376C71.0442 16.0824 71.6513 16.5727 71.6513 17.4407C71.6513 18.3088 71.0604 18.7991 70.1376 18.7991H64.9651Z" fill="white"/>
<path d="M74.8082 19C73.7154 19 73.0922 18.357 73.0922 17.2157V8.98526C73.0922 7.84394 73.7154 7.20094 74.8082 7.20094H78.2808C81.3973 7.20094 83 8.65573 83 11.1393C83 12.4253 82.4496 13.639 81.3406 14.282L82.5629 16.2753C82.8624 16.7736 82.9271 17.0388 82.9271 17.4407C82.9271 18.349 82.2148 19 81.2192 19C80.3773 19 80.0374 18.7026 79.4303 17.6336L77.8923 14.9089H76.5243V17.2157C76.5243 18.357 75.901 19 74.8082 19ZM76.5243 12.6584H77.9408C78.9041 12.6584 79.495 12.0717 79.495 11.1956C79.495 10.3356 78.8717 9.71668 77.9489 9.71668H76.5243V12.6584Z" fill="white"/>
<path d="M14 22C9.02891 22 5 17.9711 5 13C5 8.02891 9.02891 4 14 4C18.9711 4 23 8.02891 23 13C23 17.9711 18.9711 22 14 22ZM18.1484 9.12227C17.7723 8.84805 17.2449 8.93242 16.9707 9.30859L12.773 15.0813L10.9414 13.2496C10.6109 12.9191 10.0766 12.9191 9.74961 13.2496C9.42266 13.5801 9.41914 14.1145 9.74961 14.4414L12.2809 16.9727C12.4566 17.1484 12.6957 17.2363 12.9418 17.2188C13.1879 17.2012 13.4129 17.0746 13.557 16.8742L18.3348 10.3C18.609 9.92383 18.5246 9.39648 18.1484 9.12227Z" fill="white"/>
</svg>
