<svg width="577" height="448" viewBox="0 0 577 448" fill="none" xmlns="http://www.w3.org/2000/svg">
<path d="M288.075 0C207.275 0 142.575 36.8 95.475 80.6C48.675 124.1 17.375 176 2.475 211.7C-0.825 219.6 -0.825 228.4 2.475 236.3C17.375 272 48.675 324 95.475 367.4C142.575 411.1 207.275 448 288.075 448C368.875 448 433.575 411.2 480.675 367.4C527.475 323.9 558.775 272 573.675 236.3C576.975 228.4 576.975 219.6 573.675 211.7C558.775 176 527.475 124 480.675 80.6C433.575 36.9 368.875 0 288.075 0ZM144.075 224C144.075 144.5 208.575 80 288.075 80C367.575 80 432.075 144.5 432.075 224C432.075 303.5 367.575 368 288.075 368C208.575 368 144.075 303.5 144.075 224ZM288.075 160C288.075 195.3 259.375 224 224.075 224C212.575 224 201.775 221 192.375 215.6C191.375 226.5 192.275 237.7 195.275 248.8C208.975 300 261.675 330.4 312.875 316.7C364.075 303 394.475 250.3 380.775 199.1C368.575 153.4 325.275 124.3 279.675 128.3C284.975 137.6 288.075 148.4 288.075 160Z" fill="white"/>
</svg>
