<svg width="21" height="29" viewBox="0 0 21 29" fill="none" xmlns="http://www.w3.org/2000/svg">
<path d="M16.2148 16.4881C17.5547 15.0211 18.375 13.05 18.375 10.875C18.375 6.37207 14.8477 2.71875 10.5 2.71875C6.15234 2.71875 2.625 6.37207 2.625 10.875C2.625 13.05 3.44531 15.0211 4.78516 16.4881C5.95 17.7568 7.24062 19.5467 7.7 21.75H13.3C13.7594 19.541 15.05 17.7568 16.2148 16.4881ZM18.118 18.3572C16.8273 19.7676 15.75 21.4895 15.75 23.4322V24.4688C15.75 26.9723 13.7922 29 11.375 29H9.625C7.20781 29 5.25 26.9723 5.25 24.4688V23.4322C5.25 21.4895 4.17266 19.7676 2.88203 18.3572C1.09375 16.4088 0 13.775 0 10.875C0 4.87109 4.70312 0 10.5 0C16.2969 0 21 4.87109 21 10.875C21 13.775 19.9062 16.4088 18.118 18.3572ZM7.875 10.4219C7.875 11.1752 7.28984 11.7812 6.5625 11.7812C5.83516 11.7812 5.25 11.1752 5.25 10.4219C5.25 7.66914 7.40469 5.4375 10.0625 5.4375C10.7898 5.4375 11.375 6.04355 11.375 6.79688C11.375 7.5502 10.7898 8.15625 10.0625 8.15625C8.85391 8.15625 7.875 9.17012 7.875 10.4219Z" fill="white"/>
</svg>
