<svg width="400" height="400" viewBox="0 0 400 400" fill="none" xmlns="http://www.w3.org/2000/svg">
<path d="M75 300C88.8071 300 100 311.193 100 325V375C100 388.807 88.8071 400 75 400H25C11.1929 400 0 388.807 0 375V325C0 311.193 11.1929 300 25 300H75Z" fill="white"/>
<path d="M225 300C238.807 300 250 311.193 250 325V375C250 388.807 238.807 400 225 400H175C161.193 400 150 388.807 150 375V325C150 311.193 161.193 300 175 300H225Z" fill="white"/>
<path d="M375 300C388.807 300 400 311.193 400 325V375C400 388.807 388.807 400 375 400H325C311.193 400 300 388.807 300 375V325C300 311.193 311.193 300 325 300H375Z" fill="white"/>
<path d="M75 150C88.8071 150 100 161.193 100 175V225C100 238.807 88.8071 250 75 250H25C11.1929 250 0 238.807 0 225V175C0 161.193 11.1929 150 25 150H75Z" fill="white"/>
<path d="M225 150C238.807 150 250 161.193 250 175V225C250 238.807 238.807 250 225 250H175C161.193 250 150 238.807 150 225V175C150 161.193 161.193 150 175 150H225Z" fill="white"/>
<path fill-rule="evenodd" clip-rule="evenodd" d="M375 150C388.807 150 400 161.193 400 175V225C400 238.807 388.807 250 375 250H325C311.193 250 300 238.807 300 225V175C300 161.193 311.193 150 325 150H375ZM330 160C318.954 160 310 168.954 310 180V220C310 231.046 318.954 240 330 240H370C381.046 240 390 231.046 390 220V180C390 168.954 381.046 160 370 160H330Z" fill="white"/>
<path d="M75 0C88.8071 0 100 11.1929 100 25V75C100 88.8071 88.8071 100 75 100H25C11.1929 100 0 88.8071 0 75V25C0 11.1929 11.1929 0 25 0H75Z" fill="white"/>
<path d="M225 0C238.807 0 250 11.1929 250 25V75C250 88.8071 238.807 100 225 100H175C161.193 100 150 88.8071 150 75V25C150 11.1929 161.193 0 175 0H225Z" fill="white"/>
<path d="M375 0C388.807 0 400 11.1929 400 25V75C400 88.8071 388.807 100 375 100H325C311.193 100 300 88.8071 300 75V25C300 11.1929 311.193 0 325 0H375Z" fill="white"/>
</svg>
