<svg width="551" height="526" viewBox="0 0 551 526" fill="none" xmlns="http://www.w3.org/2000/svg">
<path d="M296.577 13.1C292.477 5.1 284.177 0 275.177 0C266.177 0 257.877 5.1 253.777 13.1L180.177 157.3L20.2768 182.7C11.3768 184.1 3.97677 190.4 1.17677 199C-1.62323 207.6 0.676773 217 6.97677 223.4L121.377 337.9L96.1768 497.8C94.7768 506.7 98.4768 515.7 105.777 521C113.077 526.3 122.677 527.1 130.777 523L275.177 449.6L419.477 523C427.477 527.1 437.177 526.3 444.477 521C451.777 515.7 455.477 506.8 454.077 497.8L428.777 337.9L543.177 223.4C549.577 217 551.777 207.6 548.977 199C546.177 190.4 538.877 184.1 529.877 182.7L370.077 157.3L296.577 13.1Z" fill="white"/>
</svg>
