<svg width="23" height="23" viewBox="0 0 23 23" fill="none" xmlns="http://www.w3.org/2000/svg">
<path d="M3.31856 3.2266L2.82055 3.68878V1.38221C2.82055 0.617679 2.19034 3.28727e-06 1.41028 3.28727e-06C0.630221 3.28727e-06 4.98521e-06 0.617679 4.98521e-06 1.38221V6.91106C4.98521e-06 7.6756 0.630221 8.29327 1.41028 8.29327H7.05138C7.83144 8.29327 8.46165 7.6756 8.46165 6.91106C8.46165 6.14652 7.83144 5.52885 7.05138 5.52885H4.94037L5.27531 5.21785C5.28413 5.20921 5.29294 5.20057 5.30176 5.19193C8.60709 1.95238 13.9617 1.95238 17.2671 5.19193C20.5724 8.43149 20.5724 13.6796 17.2671 16.9191C13.9617 20.1587 8.60709 20.1587 5.30176 16.9191C4.94037 16.5649 4.61865 16.1892 4.3366 15.7918C3.89148 15.1655 3.01006 15.0143 2.37103 15.4505C1.732 15.8868 1.57775 16.7507 2.02287 17.377C2.39747 17.904 2.82496 18.405 3.30534 18.8758C7.71244 23.1952 14.8564 23.1952 19.2591 18.8758C23.6618 14.5564 23.6662 7.55897 19.2591 3.23956C14.8564 -1.07553 7.72566 -1.07985 3.31856 3.2266Z" fill="white"/>
</svg>
