<svg width="27" height="23" viewBox="0 0 27 23" fill="none" xmlns="http://www.w3.org/2000/svg">
<path d="M21.29 0.126063C21.9227 -0.130614 22.645 0.013125 23.1301 0.480278L26.5044 3.76575C26.8207 4.07376 27 4.48958 27 4.92593C27 5.36228 26.8207 5.7781 26.5044 6.08611L23.1301 9.37158C22.645 9.84386 21.9227 9.98247 21.29 9.72579C20.6573 9.46911 20.246 8.87876 20.246 8.21653V6.5738H18.5589C18.0264 6.5738 17.5255 6.81507 17.2091 7.23089L15.5009 9.44858L13.3919 6.7124L14.5097 5.25961C15.464 4.01729 16.9666 3.28833 18.5589 3.28833H20.246V1.64559C20.246 0.983365 20.6573 0.38274 21.29 0.126063ZM8.11951 13.5554L10.2285 16.2916L9.11072 17.7444C8.15642 18.9867 6.65378 19.7157 5.06151 19.7157H1.68717C0.753954 19.7157 0 18.9816 0 18.0729C0 17.1643 0.753954 16.4302 1.68717 16.4302H5.06151C5.59402 16.4302 6.0949 16.1889 6.41125 15.7731L8.11951 13.5554ZM23.1248 22.5186C22.6397 22.9909 21.9174 23.1295 21.2847 22.8728C20.652 22.6161 20.246 22.0206 20.246 21.3584V19.7157H18.5589C16.9666 19.7157 15.464 18.9867 14.5097 17.7444L6.41125 7.23089C6.0949 6.81507 5.59402 6.5738 5.06151 6.5738H1.68717C0.753954 6.5738 0 5.8397 0 4.93106C0 4.02242 0.753954 3.28833 1.68717 3.28833H5.06151C6.65378 3.28833 8.15642 4.01729 9.11072 5.25961L17.2091 15.7731C17.5255 16.1889 18.0264 16.4302 18.5589 16.4302H20.246V14.7875C20.246 14.1252 20.6573 13.5246 21.29 13.2679C21.9227 13.0113 22.645 13.155 23.1301 13.6222L26.5044 16.9076C26.8207 17.2156 27 17.6315 27 18.0678C27 18.5042 26.8207 18.92 26.5044 19.228L23.1301 22.5135L23.1248 22.5186Z" fill="white"/>
</svg>
