<svg width="76" height="26" viewBox="0 0 76 26" fill="none" xmlns="http://www.w3.org/2000/svg">
<rect width="76" height="26" rx="13" fill="#202D28"/>
<rect x="0.5" y="0.5" width="75" height="25" rx="12.5" stroke="white" stroke-opacity="0.25"/>
<path d="M13.4076 21.7225C13.0376 22.0925 12.4367 22.0925 12.0667 21.7225L8.27758 17.9333C8.00541 17.661 7.92534 17.2557 8.07324 16.9005C8.22122 16.5454 8.5676 16.3172 8.94939 16.3172H10.844L10.844 11.5809C10.844 10.5934 11.1465 9.67704 11.663 8.91834C11.7048 8.85687 11.748 8.79642 11.7926 8.73707C11.9059 8.58644 12.0284 8.44341 12.1585 8.3075C12.2108 8.25274 12.2645 8.1993 12.3194 8.1471C12.3914 8.07868 12.4651 8.01206 12.5413 7.94824C13.3638 7.25922 14.4237 6.8441 15.5812 6.8441L20.3174 6.8441V4.94949C20.3174 4.5677 20.5451 4.22138 20.9002 4.07332C21.2554 3.92531 21.6611 4.00533 21.9334 4.27767L25.7226 8.06635C26.0925 8.43631 26.0924 9.03721 25.7226 9.40724L25.7253 9.41054L21.9362 13.1992C21.6639 13.4686 21.2587 13.5515 20.9035 13.4036C20.5483 13.2556 20.3174 12.9093 20.3174 12.5274V10.6328H17.4961C17.489 10.6329 17.4818 10.6339 17.4747 10.6339L15.5801 10.6339C15.3457 10.6339 15.1318 10.719 14.9665 10.8596C14.763 11.0333 14.6337 11.2913 14.6337 11.5804L14.6337 13.475C14.6337 13.4786 14.6331 13.4823 14.6331 13.486V16.3172H16.5277C16.9095 16.3172 17.2558 16.5481 17.4038 16.9033C17.5518 17.2585 17.4689 17.6642 17.1995 17.9366L13.4103 21.7258L13.4076 21.7225Z" fill="white"/>
<path d="M37.9774 19.0004C36.8795 19.0004 36.2533 18.3574 36.2533 17.2161V9.91804H34.5212C33.6104 9.91804 33.0005 9.42775 33.0005 8.5597C33.0005 7.69165 33.5941 7.20136 34.5212 7.20136H41.4335C42.3606 7.20136 42.9542 7.69165 42.9542 8.5597C42.9542 9.42775 42.3443 9.91804 41.4335 9.91804H39.7014V17.2161C39.7014 18.3574 39.0752 19.0004 37.9774 19.0004Z" fill="white"/>
<path d="M43.9382 19.0004C42.8404 19.0004 42.1817 18.3815 42.1817 17.3527C42.1817 17.0554 42.2711 16.6213 42.4256 16.2114L45.0523 9.04195C45.5565 7.63539 46.4104 7.00043 47.7847 7.00043C49.2567 7.00043 50.1024 7.61128 50.631 9.04195L53.2821 16.2114C53.4447 16.6535 53.5098 16.975 53.5098 17.3447C53.5098 18.3092 52.786 19.0004 51.7857 19.0004C50.7692 19.0004 50.2406 18.5423 49.9479 17.417L49.7446 16.6294H45.9225L45.7192 17.3608C45.3939 18.5262 44.8734 19.0004 43.9382 19.0004ZM46.573 14.0895H49.0208L47.801 9.87786H47.7359L46.573 14.0895Z" fill="white"/>
<path d="M56.6244 18.7995C55.5265 18.7995 54.9004 18.1565 54.9004 17.0152V8.98569C54.9004 7.84437 55.5265 7.20136 56.6244 7.20136H60.6661C63.065 7.20136 64.4719 8.28643 64.4719 10.0949C64.4719 11.4291 63.4472 12.4338 62.0892 12.6026V12.6669C63.6749 12.7071 65.0005 13.8886 65.0005 15.4237C65.0005 17.4572 63.3741 18.7995 60.8612 18.7995H56.6244ZM58.3484 11.847H59.6821C60.5685 11.847 61.1215 11.3889 61.1215 10.6896C61.1215 9.97431 60.601 9.54028 59.7309 9.54028H58.3484V11.847ZM58.3484 16.4606H59.8203C60.8856 16.4606 61.4955 15.9864 61.4955 15.1103C61.4955 14.2824 60.8775 13.8002 59.8447 13.8002H58.3484V16.4606Z" fill="white"/>
</svg>
