<svg width="440" height="505" viewBox="0 0 440 505" fill="none" xmlns="http://www.w3.org/2000/svg">
<path d="M160 0.0999985C146.7 0.0999985 136 10.8 136 24.1C136 37.4 146.7 48.1 160 48.1H192V73.4C84 85.3 0 176.9 0 288.1C0 407.4 96.7 504.1 216 504.1C335.3 504.1 432 407.4 432 288.1C432 248.3 421.2 211 402.4 178.9L430.6 150.7C443.1 138.2 443.1 117.9 430.6 105.4C418.1 92.9 397.8 92.9 385.3 105.4L361.9 128.8C329 98.6 286.7 78.5 239.9 73.3V48H271.9C285.2 48 295.9 37.3 295.9 24C295.9 10.7 285.2 0 271.9 0H159.9L160 0.0999985ZM240 184.1V288.1C240 301.4 229.3 312.1 216 312.1C202.7 312.1 192 301.4 192 288.1V184.1C192 170.8 202.7 160.1 216 160.1C229.3 160.1 240 170.8 240 184.1Z" fill="white"/>
</svg>
