<svg width="576" height="384" viewBox="0 0 576 384" fill="none" xmlns="http://www.w3.org/2000/svg">
<path d="M512 48C520.8 48 528 55.2 528 64V320C528 328.8 520.8 336 512 336H64C55.2 336 48 328.8 48 320V64C48 55.2 55.2 48 64 48H512ZM64 0C28.7 0 0 28.7 0 64V320C0 355.3 28.7 384 64 384H512C547.3 384 576 355.3 576 320V64C576 28.7 547.3 0 512 0H64ZM96 160V264C96 277.3 106.7 288 120 288C133.3 288 144 277.3 144 264V240H176V264C176 277.3 186.7 288 200 288C213.3 288 224 277.3 224 264V160C224 124.7 195.3 96 160 96C124.7 96 96 124.7 96 160ZM176 192H144V160C144 151.2 151.2 144 160 144C168.8 144 176 151.2 176 160V192ZM272 120V264C272 277.3 282.7 288 296 288H348C381.1 288 408 261.1 408 228C408 212 401.7 197.5 391.5 186.7C396.9 177.7 400 167.2 400 156C400 122.9 373.1 96 340 96H296C282.7 96 272 106.7 272 120ZM352 156C352 162.6 346.6 168 340 168H320V144H340C346.6 144 352 149.4 352 156ZM320 240V216H348C354.6 216 360 221.4 360 228C360 234.6 354.6 240 348 240H320Z" fill="white"/>
</svg>
